# xmcd CD database file
#
# Track frame offsets:
#	150
#	14786
#	31691
#	47075
#	62347
#	75942
#	107184
#	124887
#	143009
#	167009
#	191634
#	204492
#	230284
#	259106
#	280479
#	295675
#	316268
#
# Disc length: 4440 seconds
#
# Revision: 1
# Processed by: cddbd v1.5.2PL0 Copyright (c) Steve Scherf et al.
# Submitted via: CDex 1.51
#
DISCID=e9115611
DTITLE=Chris Hiatt - Good Clean Fun - Chris Hiatt live at Josef's House Of Blues
DYEAR=2012
DGENRE=Blues
TTITLE0=Love Struck Baby
TTITLE1=Broken Hearted Man
TTITLE2=Lookin' Out The Window
TTITLE3=One O'Clock Girl
TTITLE4=Ever Since
TTITLE5=Scuttle Buttin' and Say What?
TTITLE6=The Oath Of Love
TTITLE7=Empty Arms
TTITLE8=Quit You Woman
TTITLE9=Cold Shot
TTITLE10=For Your Love
TTITLE11=One Way Out
TTITLE12=2 Day Blues
TTITLE13=I've Been Watching You
TTITLE14=Babysit Your Baby
TTITLE15=Ain't No Sunshine
TTITLE16=I Know A Little
EXTD=YEAR: 2012
EXTT0=
EXTT1=
EXTT2=
EXTT3=
EXTT4=
EXTT5=
EXTT6=
EXTT7=
EXTT8=
EXTT9=
EXTT10=
EXTT11=
EXTT12=
EXTT13=
EXTT14=
EXTT15=
EXTT16=
PLAYORDER=
